HIERARCHY
ROOT hip
{
	OFFSET 0.000000 0.000000 0.000000 
	CHANNELS 6 Xposition Yposition Zposition Xrotation Zrotation Yrotation
	JOINT abdomen
	{
		OFFSET 0.000000 3.402643 0.000000 
		CHANNELS 3 Xrotation Zrotation Yrotation
		JOINT chest
		{
			OFFSET 0.000000 8.438565 -0.680529 
			CHANNELS 3 Xrotation Zrotation Yrotation
			JOINT neck
			{
				OFFSET 0.000000 10.207942 -0.272212 
				CHANNELS 3 Xrotation Zrotation Yrotation
				JOINT head
				{
					OFFSET 0.000000 3.130431 0.000000 
					CHANNELS 3 Xrotation Zrotation Yrotation
					End Site
					{
						OFFSET 0.000000 3.130435 0.000000 
					}
				}
			}
			JOINT lCollar
			{
				OFFSET 3.470700 6.669187 -0.816635 
				CHANNELS 3 Yrotation Zrotation Xrotation
				JOINT lShldr
				{
					OFFSET 3.198488 0.000000 0.000000 
					CHANNELS 3 Zrotation Yrotation Xrotation
					JOINT lForeArm
					{
						OFFSET 10.139888 0.000000 0.000000 
						CHANNELS 3 Yrotation Zrotation Xrotation
						JOINT lHand
						{
							OFFSET 8.370511 0.000000 0.000000 
							CHANNELS 3 Zrotation Yrotation Xrotation
							End Site
							{
								OFFSET 4.083176 0.000000 0.000000 
							}
						}
					}
				}
			}
			JOINT rCollar
			{
				OFFSET -3.470700 6.669187 -0.816635 
				CHANNELS 3 Yrotation Zrotation Xrotation
				JOINT rShldr
				{
					OFFSET -3.198488 0.000000 0.000000 
					CHANNELS 3 Zrotation Yrotation Xrotation
					JOINT rForeArm
					{
						OFFSET -10.139888 0.000000 0.000000 
						CHANNELS 3 Yrotation Zrotation Xrotation
						JOINT rHand
						{
							OFFSET -8.370511 0.000000 0.000000 
							CHANNELS 3 Zrotation Yrotation Xrotation
							End Site
							{
								OFFSET -4.083176 0.000000 0.000000 
							}
						}
					}
				}
			}
		}
	}
	JOINT lThigh
	{
		OFFSET 5.308129 -1.633274 1.361059 
		CHANNELS 3 Xrotation Zrotation Yrotation
		JOINT lShin
		{
			OFFSET -2.041588 -20.007561 0.000000 
			CHANNELS 3 Xrotation Zrotation Yrotation
			JOINT lFoot
			{
				OFFSET 0.000000 -19.190928 -1.224953 
				CHANNELS 3 Xrotation Yrotation Zrotation
				End Site
				{
					OFFSET 0.000000 -2.449906 4.627600 
				}
			}
		}
	}
	JOINT rThigh
	{
		OFFSET -5.308129 -1.633274 1.361059 
		CHANNELS 3 Xrotation Zrotation Yrotation
		JOINT rShin
		{
			OFFSET 2.041588 -20.007561 0.000000 
			CHANNELS 3 Xrotation Zrotation Yrotation
			JOINT rFoot
			{
				OFFSET 0.000000 -19.190928 -1.224953 
				CHANNELS 3 Xrotation Yrotation Zrotation
				End Site
				{
					OFFSET 0.000000 -2.449906 4.627600 
				}
			}
		}
	}
}
MOTION
Frames: 18
Frame Time: 0.033333
-34.831524 49.167976 -1.286427 -13.593751 5.693359 -145.048828 25.899906 5.542536 6.556615 -26.570477 7.286372 3.127593 -18.419853 -1.643223 4.951526 -19.958393 -12.857164 4.141772 -1.054337 7.667406 -0.005768 -66.143478 47.377804 32.656700 -66.891510 -3.084406 -38.706387 -23.911266 5.624013 -2.498368 12.475313 2.850339 -0.001256 36.225803 -15.225700 11.452229 81.937630 0.338654 -3.951773 27.889015 5.003814 2.640226 -21.654104 1.414484 10.320891 53.847149 0.095004 -3.659722 -10.908457 -13.679894 -15.010377 -33.261204 -13.738129 -54.844196 41.081089 0.615263 3.102930 -30.050558 -11.215157 5.760366 
-34.287083 50.566425 -1.911862 -10.380859 5.341796 -127.968742 24.261921 4.561471 6.106372 -25.780136 5.449670 3.587153 -15.645233 4.009265 12.399860 -14.199772 -14.745587 15.113653 -0.183295 7.460992 -0.006224 -61.902866 48.037510 34.711567 -71.376694 -3.487108 -44.785809 -25.294020 6.300952 -2.975354 11.310018 3.324712 -0.008841 36.126156 -15.764724 12.989007 86.380272 0.472255 -5.387043 29.363010 4.894852 2.749190 -18.314711 0.614626 6.002197 48.094639 -0.255089 -3.434984 -2.951377 -9.502949 -12.772984 -26.445311 -15.516086 -55.669083 34.296741 0.947170 2.748682 -23.124197 -7.520960 9.007089 
-34.033527 51.805489 -2.668260 -7.910156 4.501953 -109.345177 22.813601 3.411189 4.989019 -24.452787 3.739072 3.370338 -12.938287 9.701608 19.080996 -6.263847 -16.851145 23.741438 1.200820 7.560199 -0.003133 -57.064423 46.729153 36.246922 -75.110275 -3.711321 -48.391312 -26.511311 6.239052 -3.103342 10.338357 3.861494 -0.000886 36.532272 -18.185986 14.122573 91.825508 0.614767 -6.876963 29.673634 4.845883 2.749292 -15.142344 -0.341740 3.131497 42.173267 -0.592628 -3.177083 3.603881 0.840726 -12.198456 -13.558260 -15.866916 -86.636047 27.213314 1.240129 2.319732 -23.361389 28.317490 24.120068 
-34.080479 52.750507 -3.431522 -5.937500 3.662109 -89.345703 21.595705 2.398067 3.629871 -22.598265 2.408000 2.701214 -10.579629 14.445168 23.997545 0.920228 -18.967428 29.316019 2.826048 7.850978 -0.009406 -53.172890 43.249500 36.083080 -78.586105 -3.840396 -50.525421 -27.448067 5.227486 -2.712451 9.806939 4.281743 0.001257 37.628101 -22.549622 14.696563 97.627975 0.708542 -7.776056 28.557636 4.955676 2.693310 -11.920382 -1.024980 0.934964 36.043613 -0.904179 -2.862128 5.746365 13.767177 -13.232471 -9.328897 -22.654493 62.373562 -27.064749 1.674046 -1.361487 -93.733223 -108.828720 -84.966484 
-34.399647 53.316227 -4.130676 -4.267578 3.095703 -68.046883 20.597084 1.464809 2.163484 -20.675076 1.720501 1.769864 -9.183430 17.585400 26.852787 5.708370 -20.492384 32.220703 4.545835 8.032765 -0.006713 -51.133396 37.905083 34.018089 -81.916023 -3.924571 -51.866455 -28.783190 3.435554 -1.896995 9.667589 4.546551 -0.003421 40.164524 -28.418842 14.480482 102.549988 0.739974 -7.996855 26.425446 4.813026 2.382827 -9.120067 -7.691123 -33.282177 29.712839 -1.181654 -2.521316 20.534794 46.380413 -25.856047 1.466856 -18.990442 27.487120 -21.238998 1.794043 -0.945128 18.261621 -20.520409 18.294527 
-34.976765 53.480824 -4.707241 -2.822266 2.539063 -45.683159 20.310299 0.597388 0.687951 -19.249182 1.590098 0.724360 -8.961355 19.059517 27.968353 8.326774 -21.078812 33.232315 6.172497 7.887402 -0.005037 -50.853874 31.202887 30.932119 -84.909111 -3.975195 -52.732826 -30.677654 2.260137 -1.345551 9.901932 4.509700 -0.005672 44.923573 -34.691761 13.365144 105.498024 0.724371 -7.714479 23.677818 4.536551 1.985564 -4.376991 -10.175390 -69.648087 23.911671 -1.424679 -2.177722 58.029118 67.887115 -65.451698 9.955362 -11.664581 -7.137667 -21.503246 1.776867 -0.995530 3.305725 19.455959 11.286537 
-35.763634 53.301125 -5.124976 -1.572266 2.119140 -23.017576 20.702827 -0.109101 -0.596815 -18.701654 1.774195 -0.225424 -9.109810 18.672956 28.152538 9.084330 -20.888660 33.206196 6.877934 7.318308 -0.003091 -52.768219 24.706451 27.174965 -86.996704 -3.942497 -51.988144 -32.041035 2.440955 -1.534058 10.645529 4.232750 -0.002731 51.787834 -39.985867 11.329907 105.781799 0.709512 -7.583381 21.150330 4.617969 1.783773 9.291367 -13.682790 71.403572 -29.274813 -1.611311 1.537338 57.703590 -69.564072 44.474117 13.182165 -0.577516 -40.196331 -25.714029 1.699998 -1.282519 0.728349 51.487915 11.563888 
-36.727322 52.912220 -5.341050 -0.546875 1.787112 -0.976257 21.773375 -0.604127 -1.424099 -18.740253 1.950082 -0.821643 -9.348848 17.350658 27.972372 9.092255 -20.634701 32.776909 6.769381 6.057563 -0.004616 -56.160728 18.802372 23.932905 -87.045616 -3.788741 -49.276619 -32.375263 3.556039 -2.259774 11.546222 3.916482 -0.004357 59.315636 -42.709301 8.963613 103.588181 0.773343 -8.357880 18.949766 5.047273 1.726745 11.595994 -4.895656 36.281910 -28.092081 -1.639943 1.439551 36.319294 -52.559849 18.089413 8.614120 9.691483 -72.606438 -29.999376 1.584414 -1.570359 12.146967 83.543655 -0.836969 
-37.804813 52.463459 -5.349287 0.625000 1.533203 19.873047 23.024569 -0.821329 -1.542232 -19.180958 1.531327 -0.856766 -9.236684 15.989594 27.512577 8.862651 -20.782537 32.133308 5.753269 4.622401 -0.006076 -60.262199 14.076849 21.898069 -84.458527 -3.548622 -45.327225 -30.890078 5.136360 -3.072445 12.036825 3.673481 -0.005734 65.293228 -42.520271 7.465466 99.472595 0.918951 -10.121795 17.724941 5.935946 1.892240 8.420978 3.796646 2.874018 -28.445210 -1.617317 1.453188 31.232840 -32.745819 5.530334 -6.267174 5.710403 73.282036 26.535427 1.295918 2.336182 -0.344488 -61.746708 9.809021 
-38.999397 52.019779 -5.177965 2.128906 0.742188 39.443428 24.074596 -0.683819 -0.934433 -19.661423 0.800125 -0.345567 -9.626270 14.622605 26.459778 8.922415 -21.094690 30.934313 4.623466 2.801978 -0.001698 -63.892582 10.080778 21.376848 -78.557678 -3.270764 -41.097111 -28.545805 6.079907 -3.307393 11.699074 3.389872 -0.004643 68.021362 -40.032505 7.037574 94.168388 1.055516 -11.914682 16.817818 6.829927 2.056123 0.244835 10.407454 -29.802410 -29.315731 -1.613294 1.491072 29.692120 -8.292458 -7.919115 -11.942862 2.431549 42.173267 31.638922 1.075103 2.621216 -10.187647 -30.967005 6.019582 
-40.309437 51.582001 -4.781920 3.398438 -1.093750 57.509579 24.647018 -0.118803 0.311026 -20.151562 0.039597 0.604918 -10.598199 12.587611 24.514505 8.679708 -20.725046 28.737659 3.574008 0.684699 -0.003631 -66.234238 7.056566 21.115833 -69.980659 -3.107978 -38.896797 -26.581741 6.923549 -3.461010 11.039345 3.102639 -0.009179 67.774147 -36.661720 6.395633 87.381035 1.075281 -12.274064 15.881549 8.083193 2.291125 -11.520715 13.408300 -61.798950 -30.302654 -1.601548 1.562894 30.214472 23.367771 -24.665354 -15.808949 -3.866933 13.186321 35.644184 0.882907 2.826061 -17.818359 -4.751185 10.646714 
-41.606022 51.148479 -4.114202 3.466797 -3.437500 73.602928 25.085463 0.787000 1.882998 -20.788017 -0.740189 1.719432 -11.953778 10.469757 21.698235 8.036242 -19.469315 25.617666 2.470408 -0.713912 -0.008292 -67.265137 5.638981 19.091101 -61.397507 -3.286878 -41.909065 -23.812443 8.101636 -3.569602 10.808533 2.742689 -0.007110 66.206985 -33.235294 4.806482 78.288467 0.853895 -9.973813 14.436903 9.029983 2.312624 -23.686626 12.613394 -91.983002 -31.563538 -1.562017 1.661806 39.518513 59.889305 -45.492569 -17.595245 -5.331547 6.120270 38.211502 0.745784 2.968203 -20.247282 -2.075214 11.504361 
-42.723736 50.787167 -3.239883 2.236328 -5.449219 87.430710 25.448961 1.761726 3.260731 -21.521492 -1.344087 2.627553 -13.586771 8.814669 18.334290 6.778582 -17.427267 22.021889 1.386433 -0.879358 -0.008016 -66.539734 6.062444 14.738864 -56.259777 -3.765213 -50.049435 -21.879541 9.089217 -3.639604 11.680182 2.323147 -0.002228 64.356750 -30.622324 2.931649 67.538902 0.285923 -3.777774 12.871390 9.706477 2.207025 -23.095394 6.860914 62.074543 24.442070 -1.376768 -2.195934 28.111832 -78.608002 16.201439 -18.352581 -6.228323 -1.409320 39.471046 0.683467 3.018916 -22.641724 -1.200728 11.831221 
-43.534359 50.652225 -2.286904 0.244141 -6.552733 99.160156 25.770491 2.253047 4.012577 -22.048414 -1.235613 3.128335 -15.756487 7.924636 14.582153 5.370029 -15.114133 18.201326 0.517585 0.283192 -0.002607 -63.721943 8.091069 11.202359 -56.658272 -4.227595 -59.207958 -23.497875 9.905517 -4.279372 12.797719 1.622758 0.001683 62.647991 -29.218637 2.176402 57.578899 -0.471231 4.654248 12.275311 9.835218 2.123898 -29.979824 6.679276 36.732773 27.680143 -1.247578 -2.393948 4.115263 -51.736240 -8.951610 -17.985126 -6.346113 -8.804704 39.129284 0.722645 3.005630 -23.675402 -1.623769 11.629535 
-44.002750 50.860748 -1.437294 -1.748047 -6.484375 109.208984 26.188465 2.178866 4.017529 -22.056135 -0.180909 3.138088 -18.344934 7.330981 10.603116 4.120188 -12.683688 14.269060 0.205205 2.011706 -0.007542 -58.477417 10.843828 11.505385 -62.486164 -4.488789 -65.525284 -27.438211 11.134190 -5.730578 13.485909 0.480876 -0.004861 61.625336 -29.348555 2.752782 51.003433 -1.076728 11.459908 12.780947 9.844634 2.217242 -34.254063 4.559496 13.030622 32.537510 -1.051914 -2.670117 1.582515 -26.738684 -11.706246 -16.529045 -5.944333 -15.455263 37.411518 0.790916 2.914236 -22.504562 -2.493219 11.260898 
-44.209763 51.436352 -0.825311 -3.115234 -5.693359 118.211929 26.611399 1.740565 3.232887 -21.633335 1.263569 2.567628 -20.850883 7.277978 6.576121 3.171944 -10.768880 10.523741 0.798637 4.336332 -0.002120 -51.890961 12.723433 14.895736 -72.216377 -4.586254 -67.670448 -31.011385 12.524066 -7.438584 13.358783 -0.532906 -0.003924 61.564827 -31.091127 4.183970 48.700958 -1.330699 14.348467 13.989182 9.674547 2.398632 -33.522911 5.116705 9.730527 37.019920 -0.838255 -2.919468 1.696470 -21.999313 -11.769980 -14.646919 -5.535967 -19.993380 35.243999 0.898409 2.801081 -18.737062 -3.850956 10.915113 
-44.337704 52.264683 -0.527694 -3.779297 -4.853516 126.337883 27.003557 1.336900 2.056291 -20.847858 3.097844 1.680153 -23.274111 6.780318 3.035598 2.683275 -9.435854 7.186549 2.505706 6.021379 -0.000971 -45.119209 12.154867 18.987276 -83.877281 -4.509435 -64.587631 -32.770138 13.417386 -8.499438 12.613840 -1.340982 0.000000 62.181263 -34.322556 5.850039 49.767593 -1.310464 14.191947 15.247453 9.091951 2.467426 -30.843100 5.339751 6.429696 39.724281 -0.695581 -3.045120 2.853947 -18.972795 -11.452106 -13.290779 -5.722636 -21.830006 33.818165 0.956898 2.727554 -13.387590 -5.118279 10.903912 
-44.575333 53.129662 -0.512868 -3.906250 -4.609375 133.574219 27.393295 1.229051 0.952405 -20.521887 4.620552 0.747103 -25.206381 5.737334 0.405463 2.444059 -8.823062 4.589562 4.292764 7.178220 -0.003512 -39.625587 9.711627 22.162354 -95.846939 -4.248424 -57.720631 -32.565529 13.836887 -8.690172 11.559078 -1.396201 -0.003367 63.683537 -38.600479 7.206678 51.630569 -1.226051 13.193539 16.312687 8.212491 2.391397 -26.768612 4.910014 3.418721 39.460728 -0.724763 -3.032345 4.519220 -17.254768 -11.045392 -13.454508 -7.194398 -21.298416 34.384480 0.952764 2.754685 -8.049541 -4.915339 11.389495 
